<svg width="51" height="167" viewBox="0 0 51 167" fill="none" xmlns="http://www.w3.org/2000/svg">
<circle cx="25.5" cy="25.4868" r="25" fill="#3E5B43"/>
<g clip-path="url(#clip0_156_726)">
<path fill-rule="evenodd" clip-rule="evenodd" d="M31.5342 23.4154C31.636 23.517 31.7168 23.6377 31.772 23.7706C31.8271 23.9035 31.8555 24.046 31.8555 24.1898C31.8555 24.3337 31.8271 24.4761 31.772 24.609C31.7168 24.7419 31.636 24.8626 31.5342 24.9642L24.9717 31.5267C24.8701 31.6286 24.7494 31.7094 24.6165 31.7645C24.4836 31.8196 24.3412 31.848 24.1973 31.848C24.0534 31.848 23.911 31.8196 23.7781 31.7645C23.6452 31.7094 23.5245 31.6286 23.4229 31.5267L20.1417 28.2454C20.04 28.1438 19.9593 28.023 19.9043 27.8902C19.8492 27.7573 19.8209 27.6149 19.8209 27.4711C19.8209 27.3273 19.8492 27.1848 19.9043 27.052C19.9593 26.9191 20.04 26.7984 20.1417 26.6967C20.3471 26.4913 20.6256 26.3759 20.9161 26.3759C21.0599 26.3759 21.2023 26.4043 21.3351 26.4593C21.468 26.5143 21.5887 26.595 21.6904 26.6967L24.1973 29.2058L29.9854 23.4154C30.087 23.3136 30.2077 23.2328 30.3406 23.1776C30.4735 23.1225 30.6159 23.0941 30.7598 23.0941C30.9037 23.0941 31.0461 23.1225 31.179 23.1776C31.3119 23.2328 31.4326 23.3136 31.5342 23.4154Z" fill="white"/>
<path d="M16.541 11.0648H14.3535C13.1932 11.0648 12.0804 11.5258 11.2599 12.3462C10.4395 13.1667 9.97852 14.2795 9.97852 15.4398V38.4086C9.97852 39.5689 10.4395 40.6817 11.2599 41.5022C12.0804 42.3226 13.1932 42.7836 14.3535 42.7836H36.2285C37.3888 42.7836 38.5016 42.3226 39.3221 41.5022C40.1426 40.6817 40.6035 39.5689 40.6035 38.4086V15.4398C40.6035 14.2795 40.1426 13.1667 39.3221 12.3462C38.5016 11.5258 37.3888 11.0648 36.2285 11.0648H34.041V13.2523H36.2285C36.8087 13.2523 37.3651 13.4828 37.7753 13.893C38.1855 14.3033 38.416 14.8597 38.416 15.4398V38.4086C38.416 38.9887 38.1855 39.5451 37.7753 39.9554C37.3651 40.3656 36.8087 40.5961 36.2285 40.5961H14.3535C13.7734 40.5961 13.217 40.3656 12.8067 39.9554C12.3965 39.5451 12.166 38.9887 12.166 38.4086V15.4398C12.166 14.8597 12.3965 14.3033 12.8067 13.893C13.217 13.4828 13.7734 13.2523 14.3535 13.2523H16.541V11.0648Z" fill="white"/>
<path d="M28.5723 9.97107C28.8623 9.97107 29.1405 10.0863 29.3457 10.2914C29.5508 10.4965 29.666 10.7747 29.666 11.0648V13.2523C29.666 13.5424 29.5508 13.8206 29.3457 14.0257C29.1405 14.2308 28.8623 14.3461 28.5723 14.3461H22.0098C21.7197 14.3461 21.4415 14.2308 21.2364 14.0257C21.0312 13.8206 20.916 13.5424 20.916 13.2523V11.0648C20.916 10.7747 21.0312 10.4965 21.2364 10.2914C21.4415 10.0863 21.7197 9.97107 22.0098 9.97107H28.5723ZM22.0098 7.78357C21.1395 7.78357 20.3049 8.12927 19.6896 8.74463C19.0742 9.35998 18.7285 10.1946 18.7285 11.0648V13.2523C18.7285 14.1226 19.0742 14.9572 19.6896 15.5725C20.3049 16.1879 21.1395 16.5336 22.0098 16.5336H28.5723C29.4425 16.5336 30.2771 16.1879 30.8925 15.5725C31.5078 14.9572 31.8535 14.1226 31.8535 13.2523V11.0648C31.8535 10.1946 31.5078 9.35998 30.8925 8.74463C30.2771 8.12927 29.4425 7.78357 28.5723 7.78357H22.0098Z" fill="white"/>
</g>
<line x1="26" y1="62.4868" x2="26" y2="151.487" stroke="#3E5B43" stroke-width="3" stroke-dasharray="8 8"/>
<circle cx="25.5" cy="162" r="5" fill="#3E5B43"/>
<defs>
<clipPath id="clip0_156_726">
<rect width="35" height="35" fill="white" transform="translate(7.79102 7.78357)"/>
</clipPath>
</defs>
</svg>
