<svg width="51" height="51" viewBox="0 0 51 51" fill="none" xmlns="http://www.w3.org/2000/svg">
<circle cx="25.5" cy="25.5132" r="25" fill="#3E5B43"/>
<g clip-path="url(#clip0_156_753)">
<path d="M11.875 21.6249C11.8749 19.4576 12.4116 17.3239 13.4371 15.4145C14.4625 13.5051 15.9449 11.8794 17.7517 10.6825C19.5586 9.48556 21.6338 8.75473 23.7919 8.55523C25.9501 8.35574 28.124 8.6938 30.1197 9.53921C32.1154 10.3846 33.8706 11.7111 35.2287 13.4002C36.5868 15.0893 37.5055 17.0884 37.9027 19.219C38.2999 21.3496 38.1633 23.5455 37.5051 25.6105C36.8469 27.6755 35.6876 29.5453 34.1306 31.0531C33.6866 31.4818 33.3453 31.9281 33.1397 32.4071L31.4728 36.2768C31.3882 36.4729 31.2481 36.64 31.0697 36.7574C30.8912 36.8748 30.6823 36.9374 30.4688 36.9374C30.7588 36.9374 31.037 37.0527 31.2422 37.2578C31.4473 37.4629 31.5625 37.7411 31.5625 38.0312C31.5625 38.3213 31.4473 38.5995 31.2422 38.8046C31.037 39.0097 30.7588 39.1249 30.4688 39.1249C30.7588 39.1249 31.037 39.2402 31.2422 39.4453C31.4473 39.6504 31.5625 39.9286 31.5625 40.2187C31.5625 40.5088 31.4473 40.787 31.2422 40.9921C31.037 41.1972 30.7588 41.3124 30.4688 41.3124L29.9788 42.2902C29.7972 42.6535 29.5181 42.9591 29.1727 43.1728C28.8273 43.3864 28.4293 43.4997 28.0231 43.4999H21.9769C21.5708 43.4997 21.1727 43.3864 20.8273 43.1728C20.4819 42.9591 20.2028 42.6535 20.0213 42.2902L19.5313 41.3124C19.2412 41.3124 18.963 41.1972 18.7579 40.9921C18.5527 40.787 18.4375 40.5088 18.4375 40.2187C18.4375 39.9286 18.5527 39.6504 18.7579 39.4453C18.963 39.2402 19.2412 39.1249 19.5313 39.1249C19.2412 39.1249 18.963 39.0097 18.7579 38.8046C18.5527 38.5995 18.4375 38.3213 18.4375 38.0312C18.4375 37.7411 18.5527 37.4629 18.7579 37.2578C18.963 37.0527 19.2412 36.9374 19.5313 36.9374C19.3173 36.9378 19.1079 36.8754 18.9291 36.758C18.7502 36.6406 18.6097 36.4733 18.525 36.2768L16.8603 32.4049C16.6202 31.8946 16.2837 31.4356 15.8694 31.0531C14.6038 29.8309 13.5977 28.366 12.9114 26.746C12.2251 25.1261 11.8726 23.3843 11.875 21.6249ZM25 10.6874C22.8216 10.6871 20.6927 11.3372 18.8862 12.5545C17.0797 13.7718 15.6778 15.5008 14.8602 17.52C14.0426 19.5391 13.8466 21.7564 14.2973 23.8877C14.7479 26.0189 15.8247 27.9671 17.3897 29.4824C17.965 30.0381 18.5141 30.7162 18.8685 31.5409L20.2531 34.7499H29.7513L31.1338 31.5409C31.4881 30.7162 32.0372 30.0381 32.6125 29.4824C34.1776 27.9669 35.2545 26.0186 35.7051 23.8871C36.1556 21.7557 35.9594 19.5382 35.1416 17.5189C34.3238 15.4997 32.9215 13.7707 31.1146 12.5536C29.3078 11.3364 27.1786 10.6866 25 10.6874Z" fill="white"/>
</g>
<defs>
<clipPath id="clip0_156_753">
<rect width="35" height="35" fill="white" transform="translate(7.5 8.5)"/>
</clipPath>
</defs>
</svg>
