<svg width="51" height="167" viewBox="0 0 51 167" fill="none" xmlns="http://www.w3.org/2000/svg">
<circle cx="25.5" cy="25" r="25" fill="#3E5B43"/>
<path d="M32.9309 20.6841C32.9309 20.9742 32.8157 21.2524 32.6106 21.4575C32.4054 21.6626 32.1272 21.7778 31.8372 21.7778C31.5471 21.7778 31.2689 21.6626 31.0638 21.4575C30.8586 21.2524 30.7434 20.9742 30.7434 20.6841C30.7434 20.394 30.8586 20.1158 31.0638 19.9107C31.2689 19.7056 31.5471 19.5903 31.8372 19.5903C32.1272 19.5903 32.4054 19.7056 32.6106 19.9107C32.8157 20.1158 32.9309 20.394 32.9309 20.6841ZM29.6497 23.9653C29.9397 23.9653 30.2179 23.8501 30.4231 23.645C30.6282 23.4399 30.7434 23.1617 30.7434 22.8716C30.7434 22.5815 30.6282 22.3033 30.4231 22.0982C30.2179 21.8931 29.9397 21.7778 29.6497 21.7778C29.3596 21.7778 29.0814 21.8931 28.8763 22.0982C28.6711 22.3033 28.5559 22.5815 28.5559 22.8716C28.5559 23.1617 28.6711 23.4399 28.8763 23.645C29.0814 23.8501 29.3596 23.9653 29.6497 23.9653ZM35.1184 22.8716C35.1184 23.1617 35.0032 23.4399 34.7981 23.645C34.5929 23.8501 34.3147 23.9653 34.0247 23.9653C33.7346 23.9653 33.4564 23.8501 33.2513 23.645C33.0461 23.4399 32.9309 23.1617 32.9309 22.8716C32.9309 22.5815 33.0461 22.3033 33.2513 22.0982C33.4564 21.8931 33.7346 21.7778 34.0247 21.7778C34.3147 21.7778 34.5929 21.8931 34.7981 22.0982C35.0032 22.3033 35.1184 22.5815 35.1184 22.8716ZM31.8372 26.1528C32.1272 26.1528 32.4054 26.0376 32.6106 25.8325C32.8157 25.6274 32.9309 25.3492 32.9309 25.0591C32.9309 24.769 32.8157 24.4908 32.6106 24.2857C32.4054 24.0806 32.1272 23.9653 31.8372 23.9653C31.5471 23.9653 31.2689 24.0806 31.0638 24.2857C30.8586 24.4908 30.7434 24.769 30.7434 25.0591C30.7434 25.3492 30.8586 25.6274 31.0638 25.8325C31.2689 26.0376 31.5471 26.1528 31.8372 26.1528ZM17.6184 19.5903H19.8059V21.7778H21.9934V23.9653H19.8059V26.1528H17.6184V23.9653H15.4309V21.7778H17.6184V19.5903Z" fill="white"/>
<path d="M14.4487 14.6313C14.4114 14.4924 14.4017 14.3475 14.4205 14.2049C14.4392 14.0623 14.4858 13.9247 14.5578 13.8002C14.6297 13.6756 14.7255 13.5665 14.8396 13.479C14.9538 13.3915 15.0841 13.3274 15.2231 13.2903L19.4493 12.1572C19.5946 12.1185 19.7463 12.1101 19.895 12.1327C20.0437 12.1552 20.1861 12.2082 20.3134 12.2883C20.4406 12.3683 20.55 12.4738 20.6347 12.598C20.7194 12.7222 20.7776 12.8626 20.8056 13.0103C22.2384 12.8375 23.7587 12.7544 25.2747 12.7544C26.8497 12.7544 28.4312 12.8441 29.9122 13.03C29.9377 12.8801 29.9943 12.7371 30.0783 12.6102C30.1622 12.4833 30.2717 12.3754 30.3998 12.2933C30.5278 12.2111 30.6716 12.1566 30.8219 12.1332C30.9723 12.1097 31.1258 12.1179 31.2728 12.1572L35.499 13.2903C35.6603 13.3335 35.8095 13.413 35.9353 13.5228C36.0611 13.6325 36.1601 13.7696 36.2247 13.9236C36.2893 14.0775 36.3178 14.2442 36.3081 14.4108C36.2983 14.5775 36.2505 14.7397 36.1684 14.885C36.4761 15.0834 36.7481 15.2999 36.9843 15.5347C37.8768 16.4272 38.6906 17.8316 39.3797 19.411C40.0797 21.0144 40.69 22.8913 41.1406 24.8053C41.5912 26.7194 41.8843 28.6991 41.9368 30.506C41.9893 32.291 41.8078 34.0103 41.2193 35.3403C40.951 35.9374 40.5009 36.4345 39.9332 36.7606C39.3655 37.0866 38.7094 37.225 38.0584 37.156C36.6672 37.0094 35.6193 36.2941 34.7487 35.465C34.2128 34.9575 33.6637 34.3144 33.1322 33.6975C32.8565 33.3738 32.5853 33.0588 32.3272 32.7722C30.7347 31.0135 28.8337 29.4319 25.2747 29.4319C21.7156 29.4319 19.8147 31.0135 18.2222 32.7722C17.9618 33.0588 17.6928 33.3738 17.4172 33.6975C16.8856 34.3144 16.3365 34.9553 15.8006 35.465C14.93 36.2963 13.8822 37.0094 12.4909 37.156C11.8399 37.225 11.1838 37.0866 10.6161 36.7606C10.0484 36.4345 9.59831 35.9374 9.32996 35.3403C8.73934 34.0103 8.55996 32.2888 8.61028 30.506C8.66278 28.6991 8.96028 26.7216 9.40871 24.8053C9.85934 22.8913 10.4718 21.0144 11.1697 19.411C11.8587 17.8316 12.6725 16.4272 13.5628 15.5347C13.8482 15.2536 14.1662 15.0076 14.51 14.8019L14.4487 14.6313ZM18.9025 15.5325C16.984 15.9372 15.689 16.5016 15.1115 17.0813C14.5078 17.685 13.8275 18.7941 13.1756 20.286C12.4867 21.9092 11.9392 23.5889 11.5393 25.3063C11.1204 27.0321 10.8721 28.795 10.7978 30.5694C10.7497 32.221 10.9334 33.5619 11.3293 34.4544C11.4104 34.6282 11.5439 34.7723 11.711 34.8665C11.8781 34.9606 12.0705 35.0001 12.2612 34.9794C12.9765 34.905 13.5956 34.5441 14.2934 33.8813C14.7572 33.4394 15.1684 32.956 15.6387 32.4069C15.9297 32.0656 16.2425 31.7003 16.6012 31.3044C18.4081 29.3072 20.8515 27.2466 25.2747 27.2466C29.6978 27.2466 32.1412 29.3072 33.9481 31.3044C34.3068 31.7003 34.6197 32.0656 34.9106 32.4069C35.3787 32.956 35.7922 33.4394 36.2559 33.8813C36.9515 34.5441 37.5706 34.905 38.2881 34.9816C38.479 35.0021 38.6716 34.9623 38.8388 34.8678C39.0059 34.7732 39.1392 34.6286 39.22 34.4544C39.6137 33.5619 39.7997 32.2231 39.7515 30.5694C39.6772 28.795 39.4289 27.0321 39.01 25.3063C38.6101 23.5889 38.0626 21.9092 37.3737 20.286C36.7218 18.7941 36.0393 17.6828 35.4378 17.0813C34.8603 16.5016 33.5653 15.9372 31.6468 15.5325C29.7875 15.141 27.5409 14.9419 25.2747 14.9419C23.0084 14.9419 20.7618 15.141 18.9025 15.5325Z" fill="white"/>
<line x1="26" y1="62" x2="26" y2="151" stroke="#3E5B43" stroke-width="3" stroke-dasharray="8 8"/>
<circle cx="25.5" cy="161.513" r="5" fill="#3E5B43"/>
</svg>
